<svg width="88" height="31" viewBox="0 0 88 31" fill="none" xmlns="http://www.w3.org/2000/svg">
<rect width="87.7583" height="30.0886" rx="15.0443" fill="#F1FBF8"/>
<circle cx="15.8893" cy="15.0475" r="3.35215" fill="#28C30A"/>
<path d="M30.2564 19.5938L34.6524 9.72375H35.8984L40.3644 19.5938H38.8664L37.6484 16.7937L38.2644 17.1857H32.2864L32.9444 16.7937L31.7264 19.5938H30.2564ZM35.2544 11.3197L33.1264 16.3457L32.7904 16.0237H37.7604L37.4804 16.3457L35.3104 11.3197H35.2544ZM44.5687 19.7198C43.8593 19.7198 43.2387 19.5751 42.7067 19.2857C42.184 18.9871 41.778 18.5624 41.4887 18.0117C41.2087 17.4517 41.0687 16.7891 41.0687 16.0237C41.0687 15.2677 41.2133 14.6191 41.5027 14.0777C41.792 13.5364 42.198 13.1257 42.7207 12.8457C43.2433 12.5564 43.8593 12.4117 44.5687 12.4117C45.026 12.4117 45.4693 12.4911 45.8987 12.6497C46.328 12.7991 46.6827 13.0137 46.9627 13.2937L46.5007 14.2877C46.2393 14.0357 45.9453 13.8491 45.6187 13.7277C45.292 13.5971 44.9747 13.5317 44.6667 13.5317C43.9947 13.5317 43.4673 13.7464 43.0847 14.1757C42.702 14.6051 42.5107 15.2257 42.5107 16.0377C42.5107 16.8591 42.702 17.4891 43.0847 17.9277C43.4673 18.3664 43.9947 18.5857 44.6667 18.5857C44.9653 18.5857 45.278 18.5297 45.6047 18.4177C45.9313 18.2964 46.23 18.1051 46.5007 17.8438L46.9627 18.8377C46.6733 19.1177 46.3093 19.3371 45.8707 19.4957C45.4413 19.6451 45.0073 19.7198 44.5687 19.7198ZM51.2187 19.7198C50.4533 19.7198 49.8747 19.5144 49.4827 19.1037C49.0907 18.6837 48.8947 18.0584 48.8947 17.2277V13.6297H47.5227V12.5377H48.8947V10.6757L50.3087 10.2977V12.5377H52.2687V13.6297H50.3087V17.1017C50.3087 17.6244 50.402 17.9977 50.5887 18.2217C50.7753 18.4457 51.046 18.5577 51.4007 18.5577C51.578 18.5577 51.732 18.5437 51.8627 18.5157C52.0027 18.4784 52.1287 18.4364 52.2407 18.3897V19.5377C52.1007 19.5938 51.9373 19.6358 51.7507 19.6638C51.564 19.7011 51.3867 19.7198 51.2187 19.7198ZM53.5606 19.5938V12.5377H54.9746V19.5938H53.5606ZM53.4486 11.0677V9.59775H55.0866V11.0677H53.4486ZM59.1189 19.5938L56.0949 12.5377H57.6069L59.9869 18.4317H59.5809L62.0029 12.5377H63.4449L60.4069 19.5938H59.1189ZM67.7054 19.7198C66.5668 19.7198 65.6708 19.3977 65.0174 18.7537C64.3641 18.1097 64.0374 17.2184 64.0374 16.0797C64.0374 15.3424 64.1774 14.6984 64.4574 14.1477C64.7468 13.5971 65.1434 13.1724 65.6474 12.8737C66.1608 12.5657 66.7534 12.4117 67.4254 12.4117C68.0881 12.4117 68.6434 12.5517 69.0914 12.8317C69.5394 13.1117 69.8801 13.5084 70.1134 14.0217C70.3468 14.5257 70.4634 15.1231 70.4634 15.8137V16.2617H65.1434V15.4497H69.4974L69.2594 15.6317C69.2594 14.9317 69.1008 14.3904 68.7834 14.0077C68.4754 13.6157 68.0274 13.4197 67.4394 13.4197C66.7861 13.4197 66.2821 13.6484 65.9274 14.1057C65.5728 14.5537 65.3954 15.1744 65.3954 15.9677V16.1077C65.3954 16.9384 65.5961 17.5637 65.9974 17.9837C66.4081 18.4037 66.9868 18.6137 67.7334 18.6137C68.1441 18.6137 68.5268 18.5577 68.8814 18.4457C69.2454 18.3244 69.5908 18.1284 69.9174 17.8577L70.3794 18.8237C70.0528 19.1131 69.6561 19.3371 69.1894 19.4957C68.7228 19.6451 68.2281 19.7198 67.7054 19.7198Z" fill="#28C30A"/>
</svg>
