<svg width="41" height="41" viewBox="0 0 41 41" fill="none" xmlns="http://www.w3.org/2000/svg">
<rect x="0.25293" y="0.953125" width="40" height="40" rx="20" fill="white"/>
<rect x="0.801448" y="1.50164" width="38.903" height="38.903" rx="19.4515" stroke="black" stroke-opacity="0.2" stroke-width="1.09704"/>
<g clip-path="url(#clip0_1376_11108)">
<path d="M33.7197 1.26562H6.78666C3.08973 1.26562 0.0927734 4.26258 0.0927734 7.95951V33.8845C0.0927734 37.5815 3.08973 40.5784 6.78666 40.5784H33.7197C37.4166 40.5784 40.4136 37.5815 40.4136 33.8845V7.95951C40.4136 4.26258 37.4166 1.26562 33.7197 1.26562Z" fill="#470137"/>
<path d="M21.1771 15.2634L17.508 21.3194L21.4335 27.7501C21.4588 27.7951 21.4658 27.848 21.4533 27.898C21.4472 27.9194 21.4341 27.9247 21.414 27.9255L21.3917 27.9251L21.3646 27.9245C21.3499 27.9245 21.3335 27.9251 21.3152 27.9281H18.4849L18.4293 27.9272C18.2768 27.9232 18.1669 27.9014 18.0999 27.7895C17.838 27.2793 17.575 26.7697 17.3108 26.2608C17.0745 25.8068 16.8317 25.3562 16.5825 24.9092L16.4725 24.7123C16.1745 24.1827 15.8819 23.6501 15.5947 23.1145H15.575C15.3097 23.6445 15.0368 24.1705 14.7563 24.6925C14.4734 25.2186 14.1939 25.7415 13.9179 26.2608C13.6417 26.7805 13.359 27.2967 13.0698 27.8092C13.0232 27.9138 12.9459 27.9356 12.8383 27.9392L12.7935 27.9398H10.0911L10.0794 27.9402L10.0408 27.9436C10.0193 27.9449 10.0064 27.9403 10.0023 27.9079C9.9949 27.8598 10.0054 27.8107 10.0319 27.7699L13.839 21.5166L10.1305 15.2439C10.0911 15.1915 10.0846 15.1488 10.1107 15.1157C10.1253 15.0988 10.1436 15.0856 10.1641 15.077C10.1847 15.0685 10.207 15.0648 10.2292 15.0663H13.0105C13.0711 15.063 13.1318 15.0731 13.1881 15.0959C13.2352 15.1227 13.2757 15.1598 13.3064 15.2045C13.5431 15.7306 13.8062 16.2567 14.0955 16.7825C14.3826 17.305 14.6752 17.8245 14.9733 18.3409C15.2668 18.8492 15.5399 19.3691 15.7919 19.8992H15.8117C16.07 19.3692 16.3363 18.8431 16.6106 18.3212C16.8799 17.8084 17.1562 17.292 17.439 16.7726C17.7182 16.2599 17.9911 15.7437 18.2576 15.2243C18.2728 15.1755 18.2999 15.1314 18.3365 15.0959C18.3853 15.0713 18.44 15.061 18.4944 15.0663H21.0785C21.1022 15.0604 21.1272 15.0623 21.1498 15.0719C21.1724 15.0814 21.1912 15.098 21.2035 15.1192C21.2158 15.1403 21.2209 15.1649 21.218 15.1892C21.2152 15.2136 21.2045 15.2363 21.1876 15.254L21.1771 15.2634ZM26.9743 28.1826L26.8383 28.1841C25.9304 28.1979 25.0307 28.0092 24.2048 27.6318C23.4355 27.2757 22.7923 26.6944 22.3605 25.9649C21.925 25.2417 21.7015 24.3405 21.6902 23.2615L21.6898 23.1737C21.6824 22.2683 21.9138 21.377 22.3606 20.5896C22.8077 19.8102 23.4597 19.168 24.2457 18.7327L24.3134 18.6959C25.168 18.2224 26.2004 17.9857 27.4104 17.9857L27.4632 17.9863L27.5236 17.9882L27.5914 17.9912L27.6667 17.9956L27.7933 18.0045L27.9367 18.016L28.0415 18.0252V14.1391C28.0415 14.0472 28.081 14.0011 28.1598 14.0011H30.6454C30.6615 13.9988 30.6779 14.0002 30.6933 14.0054C30.7087 14.0105 30.7227 14.0191 30.7341 14.0306C30.7456 14.0421 30.7543 14.0561 30.7594 14.0715C30.7645 14.0869 30.766 14.1033 30.7637 14.1194V25.7775C30.7637 25.9733 30.7713 26.1841 30.7864 26.4097L30.8232 26.9215L30.8427 27.2175C30.8452 27.2585 30.8352 27.2992 30.814 27.3344C30.7929 27.3697 30.7616 27.3977 30.7243 27.4148C30.0831 27.6822 29.4152 27.8805 28.732 28.0065C28.152 28.1135 27.5641 28.1724 26.9743 28.1826ZM28.0415 25.738V20.3528C27.9349 20.324 27.8261 20.3042 27.7161 20.2937C27.5817 20.2801 27.4467 20.2736 27.3117 20.2739C26.833 20.2692 26.36 20.3773 25.9309 20.5896C25.513 20.7973 25.1561 21.11 24.8953 21.497C24.6349 21.8779 24.5001 22.3752 24.4913 22.9891L24.4908 23.0554C24.4812 23.4853 24.5515 23.9134 24.6979 24.3177C24.8172 24.6436 25.0057 24.9397 25.2504 25.1857C25.4847 25.412 25.7683 25.5808 26.0788 25.6789C26.4069 25.7851 26.7498 25.8384 27.0947 25.8368C27.2787 25.8368 27.4496 25.8301 27.6076 25.8169C27.7335 25.8075 27.8584 25.7867 27.9807 25.7549L28.0415 25.738Z" fill="#FF61F6"/>
</g>
<defs>
<clipPath id="clip0_1376_11108">
<rect x="0.0927734" y="1.26562" width="40.3208" height="39.3758" rx="19.6879" fill="white"/>
</clipPath>
</defs>
</svg>
