<svg width="40" height="41" viewBox="0 0 40 41" fill="none" xmlns="http://www.w3.org/2000/svg">
<path d="M31.1453 20.5587L22.9619 17.5416L19.9382 9.35156C19.707 8.72448 19.2891 8.18336 18.7408 7.80116C18.1925 7.41896 17.5402 7.21405 16.8719 7.21405C16.2035 7.21405 15.5513 7.41896 15.003 7.80116C14.4547 8.18336 14.0368 8.72448 13.8056 9.35156L10.7885 17.5416L2.59846 20.5587C1.97137 20.7899 1.43026 21.2078 1.04805 21.7561C0.665851 22.3044 0.460937 22.9566 0.460938 23.625C0.460937 24.2934 0.665851 24.9456 1.04805 25.4939C1.43026 26.0422 1.97137 26.4601 2.59846 26.6913L10.7819 29.7084L13.8056 37.8984C14.0368 38.5255 14.4547 39.0666 15.003 39.4488C15.5513 39.831 16.2035 40.036 16.8719 40.036C17.5402 40.036 18.1925 39.831 18.7408 39.4488C19.2891 39.0666 19.707 38.5255 19.9382 37.8984L22.9553 29.715L31.1453 26.6913C31.7724 26.4601 32.3135 26.0422 32.6957 25.4939C33.0779 24.9456 33.2829 24.2934 33.2829 23.625C33.2829 22.9566 33.0779 22.3044 32.6957 21.7561C32.3135 21.2078 31.7724 20.7899 31.1453 20.5587ZM20.747 26.3271C20.4798 26.4256 20.2371 26.5809 20.0357 26.7823C19.8343 26.9837 19.6791 27.2264 19.5806 27.4936L16.8719 34.8272L14.1698 27.4936C14.0713 27.2264 13.916 26.9837 13.7146 26.7823C13.5132 26.5809 13.2705 26.4256 13.0033 26.3271L5.66971 23.625L13.0033 20.9229C13.2705 20.8244 13.5132 20.6691 13.7146 20.4677C13.916 20.2663 14.0713 20.0236 14.1698 19.7564L16.8719 12.4228L19.574 19.7564C19.6725 20.0236 19.8278 20.2663 20.0292 20.4677C20.2306 20.6691 20.4733 20.8244 20.7405 20.9229L28.0741 23.625L20.747 26.3271ZM21.4656 6.5625C21.4656 6.04036 21.6731 5.5396 22.0423 5.17038C22.4115 4.80117 22.9122 4.59375 23.4344 4.59375H25.4031V2.625C25.4031 2.10286 25.6106 1.6021 25.9798 1.23288C26.349 0.863671 26.8497 0.65625 27.3719 0.65625C27.894 0.65625 28.3948 0.863671 28.764 1.23288C29.1332 1.6021 29.3406 2.10286 29.3406 2.625V4.59375H31.3094C31.8315 4.59375 32.3323 4.80117 32.7015 5.17038C33.0707 5.5396 33.2781 6.04036 33.2781 6.5625C33.2781 7.08464 33.0707 7.5854 32.7015 7.95462C32.3323 8.32383 31.8315 8.53125 31.3094 8.53125H29.3406V10.5C29.3406 11.0221 29.1332 11.5229 28.764 11.8921C28.3948 12.2613 27.894 12.4688 27.3719 12.4688C26.8497 12.4688 26.349 12.2613 25.9798 11.8921C25.6106 11.5229 25.4031 11.0221 25.4031 10.5V8.53125H23.4344C22.9122 8.53125 22.4115 8.32383 22.0423 7.95462C21.6731 7.5854 21.4656 7.08464 21.4656 6.5625ZM39.8406 14.4375C39.8406 14.9596 39.6332 15.4604 39.264 15.8296C38.8948 16.1988 38.394 16.4062 37.8719 16.4062H37.2156V17.0625C37.2156 17.5846 37.0082 18.0854 36.639 18.4546C36.2698 18.8238 35.769 19.0312 35.2469 19.0312C34.7248 19.0312 34.224 18.8238 33.8548 18.4546C33.4856 18.0854 33.2781 17.5846 33.2781 17.0625V16.4062H32.6219C32.0997 16.4062 31.599 16.1988 31.2298 15.8296C30.8606 15.4604 30.6531 14.9596 30.6531 14.4375C30.6531 13.9154 30.8606 13.4146 31.2298 13.0454C31.599 12.6762 32.0997 12.4688 32.6219 12.4688H33.2781V11.8125C33.2781 11.2904 33.4856 10.7896 33.8548 10.4204C34.224 10.0512 34.7248 9.84375 35.2469 9.84375C35.769 9.84375 36.2698 10.0512 36.639 10.4204C37.0082 10.7896 37.2156 11.2904 37.2156 11.8125V12.4688H37.8719C38.394 12.4688 38.8948 12.6762 39.264 13.0454C39.6332 13.4146 39.8406 13.9154 39.8406 14.4375Z" fill="#2152FF"/>
</svg>
