<svg width="141" height="142" viewBox="0 0 141 142" fill="none" xmlns="http://www.w3.org/2000/svg">
<circle cx="70.4792" cy="70.8757" r="70.3523" fill="#1ED760" fill-opacity="0.2"/>
<circle cx="70.4809" cy="70.4428" r="52.2709" fill="#28C30A"/>
<path d="M84.4069 58.592C84.6075 58.3872 84.847 58.2246 85.1113 58.1135C85.3756 58.0025 85.6594 57.9453 85.9461 57.9453C86.2328 57.9453 86.5166 58.0025 86.7809 58.1135C87.0452 58.2246 87.2847 58.3872 87.4853 58.592C88.3262 59.4417 88.338 60.8148 87.5147 61.6792L70.1291 82.2315C69.9317 82.4482 69.6922 82.6224 69.4251 82.7435C69.1581 82.8645 68.8692 82.9297 68.5761 82.9352C68.283 82.9407 67.9918 82.8864 67.7204 82.7755C67.449 82.6646 67.2031 82.4995 66.9977 82.2903L56.4188 71.5702C56.0108 71.1541 55.7822 70.5946 55.7822 70.0119C55.7822 69.4291 56.0108 68.8696 56.4188 68.4535C56.6194 68.2488 56.8589 68.0861 57.1232 67.9751C57.3875 67.8641 57.6713 67.8069 57.958 67.8069C58.2447 67.8069 58.5284 67.8641 58.7927 67.9751C59.057 68.0861 59.2965 68.2488 59.4972 68.4535L68.4708 77.5477L84.3481 58.6567C84.3664 58.6339 84.386 58.6123 84.4069 58.592Z" fill="white"/>
</svg>
