<svg width="41" height="41" viewBox="0 0 41 41" fill="none" xmlns="http://www.w3.org/2000/svg">
<rect x="0.25293" y="0.492188" width="40" height="40" rx="20" fill="#E64C86"/>
<rect x="0.81491" y="1.05417" width="38.876" height="38.876" rx="19.438" stroke="black" stroke-opacity="0.2" stroke-width="1.12396"/>
<path d="M30.9566 20.4934C30.9584 21.9034 30.6808 23.2997 30.1398 24.6017C29.5988 25.9037 28.8052 27.0856 27.8047 28.0791C26.8125 29.0696 25.6347 29.8549 24.3388 30.39C23.0429 30.9251 21.6543 31.1996 20.2522 31.1978C14.3402 31.1978 9.54786 26.4055 9.54786 20.4934C9.54412 17.7487 10.5984 15.1082 12.4916 13.1208C13.4905 12.0667 14.6939 11.2276 16.0284 10.6547C17.3628 10.0818 18.8001 9.78729 20.2522 9.78907C21.6543 9.78726 23.0429 10.0618 24.3388 10.5969C25.6347 11.132 26.8125 11.9173 27.8047 12.9078C28.8052 13.9013 29.5988 15.0832 30.1398 16.3852C30.6808 17.6872 30.9584 19.0835 30.9566 20.4934Z" stroke="white" stroke-width="2.14088" stroke-linecap="round" stroke-linejoin="round"/>
<path d="M30.9563 20.4897C29.3945 20.4897 25.086 19.901 21.2298 21.5939C17.0406 23.4334 14.0075 26.2872 12.6855 28.0614" stroke="white" stroke-width="2.14088" stroke-linecap="round" stroke-linejoin="round"/>
<path d="M16.2383 10.5703C17.9135 12.1166 21.5691 16.0531 22.9285 19.9613C24.288 23.8694 24.7911 28.6746 25.1015 30.0421" stroke="white" stroke-width="2.14088" stroke-linecap="round" stroke-linejoin="round"/>
<path d="M9.63184 19.152C11.6539 19.2741 17.0066 19.3838 20.432 17.921C23.8574 16.4583 26.8049 13.7677 27.8159 12.9141M10.3522 24.5647C11.2955 26.8479 12.9966 28.7363 15.1692 29.9121" stroke="white" stroke-width="2.14088" stroke-linecap="round" stroke-linejoin="round"/>
<path d="M9.54786 20.4934C9.54412 17.7487 10.5984 15.1082 12.4916 13.1208C13.4905 12.0667 14.6939 11.2276 16.0284 10.6547C17.3628 10.0818 18.8001 9.78729 20.2522 9.78907M24.534 10.6797C25.753 11.213 26.8621 11.9686 27.8047 12.9078C28.8052 13.9013 29.5988 15.0832 30.1398 16.3852C30.6808 17.6872 30.9584 19.0835 30.9566 20.4934C30.9566 21.8112 30.7184 23.0737 30.2822 24.24M20.2522 31.1978C21.6543 31.1996 23.0429 30.9251 24.3388 30.39C25.6347 29.8549 26.8125 29.0696 27.8047 28.0791" stroke="white" stroke-width="2.14088" stroke-linecap="round" stroke-linejoin="round"/>
</svg>
