<svg width="68" height="31" viewBox="0 0 68 31" fill="none" xmlns="http://www.w3.org/2000/svg">
<rect x="0.5" width="67" height="31" rx="15.5" fill="#FFF8EC"/>
<circle cx="16.7952" cy="15.5003" r="3.43778" fill="#FF9C08"/>
<path d="M25.8217 20V10.4099H29.1408C30.22 10.4099 31.1314 10.5958 31.8751 10.9676C32.6278 11.3394 33.1945 11.8835 33.5754 12.6C33.9654 13.3073 34.1604 14.1734 34.1604 15.1981C34.1604 16.2138 33.9654 17.0799 33.5754 17.7963C33.1945 18.5127 32.6278 19.0614 31.8751 19.4423C31.1314 19.8141 30.22 20 29.1408 20H25.8217ZM27.2364 18.8165H29.0592C30.2926 18.8165 31.2085 18.5173 31.807 17.9187C32.4146 17.3202 32.7184 16.4133 32.7184 15.1981C32.7184 13.9829 32.4146 13.0806 31.807 12.4911C31.2085 11.8926 30.2926 11.5933 29.0592 11.5933H27.2364V18.8165ZM38.3896 20.1224C37.5644 20.1224 36.9432 19.9002 36.526 19.4559C36.1179 19.0024 35.9139 18.3087 35.9139 17.3746V13.1441H37.2878V17.3474C37.2878 17.9187 37.4057 18.3404 37.6415 18.6125C37.8772 18.8846 38.2355 19.0206 38.7161 19.0206C39.2602 19.0206 39.7001 18.8392 40.0356 18.4765C40.3711 18.1137 40.5389 17.6331 40.5389 17.0345V13.1441H41.9128V20H40.5797V18.5309H40.7566C40.5661 19.0387 40.2623 19.4332 39.8452 19.7143C39.428 19.9864 38.9428 20.1224 38.3896 20.1224ZM47.0947 20.1224C45.9883 20.1224 45.1177 19.8096 44.4829 19.1838C43.8481 18.5581 43.5307 17.692 43.5307 16.5856C43.5307 15.8692 43.6668 15.2435 43.9388 14.7084C44.2199 14.1734 44.6054 13.7607 45.0951 13.4705C45.5938 13.1713 46.1697 13.0216 46.8227 13.0216C47.4665 13.0216 48.0061 13.1577 48.4414 13.4297C48.8767 13.7018 49.2077 14.0872 49.4344 14.586C49.6612 15.0757 49.7745 15.6561 49.7745 16.3272V16.7625H44.6054V15.9735H48.8359L48.6047 16.1503C48.6047 15.4702 48.4505 14.9442 48.1421 14.5724C47.8429 14.1915 47.4076 14.0011 46.8363 14.0011C46.2015 14.0011 45.7117 14.2232 45.3671 14.6676C45.0225 15.1029 44.8502 15.706 44.8502 16.4768V16.6128C44.8502 17.42 45.0452 18.0276 45.4351 18.4357C45.8342 18.8437 46.3964 19.0478 47.1219 19.0478C47.5209 19.0478 47.8928 18.9934 48.2374 18.8846C48.591 18.7667 48.9266 18.5762 49.244 18.3132L49.6929 19.2518C49.3755 19.533 48.9901 19.7506 48.5366 19.9048C48.0832 20.0499 47.6026 20.1224 47.0947 20.1224Z" fill="#FF9C08"/>
</svg>
