<svg width="129" height="31" viewBox="0 0 129 31" fill="none" xmlns="http://www.w3.org/2000/svg">
<rect x="0.854492" y="0.609375" width="127.737" height="30.2279" rx="15.1139" fill="#FFF8EC"/>
<circle cx="16.7438" cy="15.7272" r="3.35215" fill="#FF9C08"/>
<path d="M27.0396 20.4844V11.1331H30.2761C31.3284 11.1331 32.2171 11.3144 32.9422 11.6769C33.6761 12.0395 34.2288 12.5701 34.6002 13.2686C34.9804 13.9584 35.1706 14.8029 35.1706 15.8021C35.1706 16.7925 34.9804 17.637 34.6002 18.3356C34.2288 19.0342 33.6761 19.5691 32.9422 19.9405C32.2171 20.3031 31.3284 20.4844 30.2761 20.4844H27.0396ZM28.4191 19.3304H30.1965C31.3991 19.3304 32.2922 19.0386 32.8758 18.455C33.4683 17.8713 33.7646 16.987 33.7646 15.8021C33.7646 14.6172 33.4683 13.7373 32.8758 13.1625C32.2922 12.5789 31.3991 12.2871 30.1965 12.2871H28.4191V19.3304ZM39.2945 20.6038C38.4898 20.6038 37.8841 20.3871 37.4773 19.9538C37.0794 19.5117 36.8804 18.8352 36.8804 17.9244V13.7992H38.2201V17.8979C38.2201 18.455 38.335 18.8661 38.565 19.1314C38.7949 19.3967 39.1442 19.5294 39.6128 19.5294C40.1434 19.5294 40.5723 19.3525 40.8995 18.9988C41.2266 18.6451 41.3902 18.1764 41.3902 17.5928V13.7992H42.7299V20.4844H41.43V19.0518H41.6025C41.4168 19.547 41.1205 19.9317 40.7138 20.2058C40.307 20.4711 39.8339 20.6038 39.2945 20.6038ZM47.7827 20.6038C46.7039 20.6038 45.855 20.2987 45.236 19.6885C44.617 19.0784 44.3075 18.2339 44.3075 17.1551C44.3075 16.4565 44.4402 15.8463 44.7054 15.3246C44.9796 14.8029 45.3554 14.4005 45.8329 14.1176C46.3193 13.8257 46.8808 13.6798 47.5175 13.6798C48.1453 13.6798 48.6714 13.8125 49.0959 14.0778C49.5204 14.343 49.8431 14.7189 50.0642 15.2052C50.2853 15.6827 50.3958 16.2487 50.3958 16.903V17.3275H45.3554V16.5582H49.4806L49.2551 16.7306C49.2551 16.0674 49.1047 15.5545 48.8041 15.192C48.5123 14.8206 48.0878 14.6349 47.5307 14.6349C46.9117 14.6349 46.4342 14.8515 46.0982 15.2848C45.7622 15.7093 45.5942 16.2973 45.5942 17.0489V17.1816C45.5942 17.9686 45.7843 18.5611 46.1645 18.959C46.5536 19.3569 47.1019 19.5559 47.8093 19.5559C48.1984 19.5559 48.5609 19.5028 48.8969 19.3967C49.2418 19.2818 49.569 19.0961 49.8785 18.8396L50.3162 19.7548C50.0067 20.029 49.6309 20.2412 49.1888 20.3915C48.7466 20.533 48.2779 20.6038 47.7827 20.6038ZM55.4694 20.4844V13.7992H56.809V20.4844H55.4694ZM55.3632 12.4065V11.0137H56.9152V12.4065H55.3632ZM58.7725 20.4844V15.4042C58.7725 15.1477 58.7592 14.8869 58.7327 14.6216C58.715 14.3475 58.6929 14.0733 58.6663 13.7992H59.9662L60.0856 15.2052H59.9264C60.1298 14.71 60.4437 14.3342 60.8682 14.0778C61.2927 13.8125 61.7834 13.6798 62.3405 13.6798C63.1275 13.6798 63.72 13.8965 64.1179 14.3298C64.5247 14.7631 64.7281 15.4351 64.7281 16.3459V20.4844H63.3884V16.4255C63.3884 15.8331 63.269 15.4086 63.0303 15.1522C62.8004 14.8869 62.4466 14.7542 61.9691 14.7542C61.4032 14.7542 60.9522 14.9311 60.6162 15.2848C60.2802 15.6297 60.1121 16.0983 60.1121 16.6908V20.4844H58.7725ZM73.1691 20.6038C72.0903 20.6038 71.2502 20.3738 70.6489 19.914C70.0476 19.4542 69.7469 18.8131 69.7469 17.9907C69.7469 17.3363 69.9459 16.7969 70.3438 16.3725C70.7417 15.9392 71.2635 15.6783 71.909 15.5899V15.8286C71.3254 15.7048 70.8567 15.4351 70.503 15.0195C70.1581 14.6039 69.9857 14.0999 69.9857 13.5074C69.9857 12.7292 70.2687 12.1191 70.8346 11.6769C71.4005 11.2348 72.1787 11.0137 73.1691 11.0137C74.1683 11.0137 74.9509 11.2348 75.5169 11.6769C76.0828 12.1191 76.3658 12.7292 76.3658 13.5074C76.3658 14.0999 76.1978 14.6083 75.8617 15.0328C75.5345 15.4484 75.0836 15.7093 74.5088 15.8154V15.5899C75.1455 15.6783 75.6539 15.9392 76.0342 16.3725C76.4144 16.7969 76.6045 17.3363 76.6045 17.9907C76.6045 18.8131 76.3039 19.4542 75.7026 19.914C75.1012 20.3738 74.2568 20.6038 73.1691 20.6038ZM73.1691 19.5161C73.8854 19.5161 74.4204 19.3834 74.7741 19.1182C75.1278 18.844 75.3046 18.4373 75.3046 17.8979C75.3046 17.3584 75.1278 16.9561 74.7741 16.6908C74.4204 16.4255 73.8854 16.2929 73.1691 16.2929C72.4528 16.2929 71.9178 16.4255 71.5641 16.6908C71.2104 16.9561 71.0336 17.3584 71.0336 17.8979C71.0336 18.4373 71.2104 18.844 71.5641 19.1182C71.9267 19.3834 72.4617 19.5161 73.1691 19.5161ZM73.1691 15.2052C73.7881 15.2052 74.2568 15.0682 74.5751 14.794C74.9023 14.5111 75.0659 14.1264 75.0659 13.64C75.0659 13.1625 74.9023 12.7867 74.5751 12.5126C74.2568 12.2385 73.7881 12.1014 73.1691 12.1014C72.5589 12.1014 72.0903 12.2385 71.7631 12.5126C71.4359 12.7867 71.2723 13.1625 71.2723 13.64C71.2723 14.1264 71.4359 14.5111 71.7631 14.794C72.0903 15.0682 72.5589 15.2052 73.1691 15.2052ZM84.221 20.6038C83.6374 20.6038 83.12 20.4667 82.6691 20.1926C82.2269 19.9184 81.8821 19.5205 81.6345 18.9988C81.3957 18.4771 81.2763 17.8581 81.2763 17.1418C81.2763 16.4167 81.3957 15.7977 81.6345 15.2848C81.8821 14.7719 82.2269 14.3784 82.6691 14.1043C83.12 13.8213 83.6374 13.6798 84.221 13.6798C84.7958 13.6798 85.2998 13.8257 85.7331 14.1176C86.1752 14.4005 86.467 14.7896 86.6085 15.2848H86.4494V10.7219H87.789V20.4844H86.4626V18.9723H86.6218C86.4715 19.4763 86.1797 19.8742 85.7464 20.166C85.3131 20.4578 84.8046 20.6038 84.221 20.6038ZM84.5526 19.5559C85.1274 19.5559 85.5916 19.3525 85.9453 18.9457C86.299 18.539 86.4759 17.9376 86.4759 17.1418C86.4759 16.3459 86.299 15.7491 85.9453 15.3511C85.5916 14.9444 85.1274 14.741 84.5526 14.741C83.969 14.741 83.5003 14.9444 83.1466 15.3511C82.8017 15.7491 82.6293 16.3459 82.6293 17.1418C82.6293 17.9376 82.8017 18.539 83.1466 18.9457C83.5003 19.3525 83.969 19.5559 84.5526 19.5559ZM92.3038 20.6038C91.7114 20.6038 91.1941 20.4667 90.7519 20.1926C90.3098 19.9184 89.9649 19.5205 89.7173 18.9988C89.4786 18.4771 89.3592 17.8581 89.3592 17.1418C89.3592 16.4167 89.4786 15.7977 89.7173 15.2848C89.9649 14.7719 90.3098 14.3784 90.7519 14.1043C91.1941 13.8213 91.7114 13.6798 92.3038 13.6798C92.8875 13.6798 93.3959 13.8257 93.8292 14.1176C94.2625 14.4094 94.5499 14.8073 94.6914 15.3113H94.5455L94.6781 13.7992H95.978C95.9515 14.0733 95.925 14.3475 95.8985 14.6216C95.8808 14.8869 95.8719 15.1477 95.8719 15.4042V20.4844H94.5322V18.9988H94.6781C94.5367 19.494 94.2448 19.8875 93.8027 20.1793C93.3694 20.4623 92.8698 20.6038 92.3038 20.6038ZM92.6355 19.5559C93.2102 19.5559 93.6701 19.3525 94.0149 18.9457C94.3686 18.539 94.5455 17.9376 94.5455 17.1418C94.5455 16.3459 94.3686 15.7491 94.0149 15.3511C93.6701 14.9444 93.2102 14.741 92.6355 14.741C92.0518 14.741 91.5832 14.9444 91.2294 15.3511C90.8846 15.7491 90.7121 16.3459 90.7121 17.1418C90.7121 17.9376 90.8846 18.539 91.2294 18.9457C91.5743 19.3525 92.043 19.5559 92.6355 19.5559ZM97.563 23.4954L97.2447 22.4077C97.6603 22.3193 98.0051 22.2131 98.2793 22.0893C98.5622 21.9655 98.7966 21.802 98.9823 21.5986C99.168 21.404 99.3271 21.152 99.4598 20.8425L99.7914 20.0599L99.7649 20.6038L96.86 13.7992H98.2925L100.547 19.3702H100.189L102.444 13.7992H103.824L100.76 20.9619C100.565 21.404 100.357 21.7754 100.136 22.0761C99.9152 22.3767 99.6764 22.6199 99.42 22.8056C99.1636 22.9913 98.8806 23.1372 98.5711 23.2433C98.2616 23.3494 97.9256 23.4335 97.563 23.4954ZM107.039 20.6038C106.481 20.6038 105.969 20.533 105.5 20.3915C105.031 20.25 104.642 20.0511 104.333 19.7946L104.744 18.8794C105.071 19.127 105.434 19.3127 105.831 19.4365C106.229 19.5603 106.636 19.6222 107.052 19.6222C107.538 19.6222 107.905 19.5382 108.153 19.3702C108.4 19.1933 108.524 18.9546 108.524 18.6539C108.524 18.424 108.445 18.2383 108.285 18.0968C108.135 17.9553 107.883 17.8492 107.529 17.7785L106.256 17.5265C105.69 17.4027 105.261 17.1904 104.969 16.8898C104.677 16.5891 104.532 16.2045 104.532 15.7358C104.532 15.3379 104.638 14.9841 104.85 14.6747C105.071 14.3652 105.38 14.122 105.778 13.9451C106.185 13.7683 106.658 13.6798 107.198 13.6798C107.693 13.6798 108.153 13.7506 108.577 13.8921C109.002 14.0335 109.355 14.2369 109.638 14.5022L109.214 15.3909C108.94 15.161 108.63 14.9841 108.285 14.8604C107.94 14.7277 107.591 14.6614 107.237 14.6614C106.742 14.6614 106.375 14.7542 106.137 14.9399C105.898 15.1256 105.778 15.3688 105.778 15.6695C105.778 15.8994 105.849 16.0895 105.991 16.2398C106.141 16.3813 106.375 16.4918 106.694 16.5714L107.967 16.8235C108.568 16.9473 109.019 17.1506 109.32 17.4336C109.621 17.7166 109.771 18.0968 109.771 18.5743C109.771 18.9899 109.656 19.3525 109.426 19.662C109.196 19.9715 108.878 20.2058 108.471 20.365C108.064 20.5242 107.587 20.6038 107.039 20.6038Z" fill="#FF9C08"/>
</svg>
