<svg width="90" height="31" viewBox="0 0 90 31" fill="none" xmlns="http://www.w3.org/2000/svg">
<rect width="90" height="30.8571" rx="15.4286" fill="#FFC7C7" fill-opacity="0.38"/>
<circle cx="16.2952" cy="15.43" r="3.43778" fill="#FF0C0C"/>
<path d="M28.1234 19.7109V10.1208H29.5381V19.7109H28.1234ZM31.6674 19.7109V14.501C31.6674 14.238 31.6538 13.9705 31.6266 13.6984C31.6085 13.4173 31.5858 13.1361 31.5586 12.855H32.8917L33.0141 14.2969H32.8509C33.0595 13.7891 33.3814 13.4037 33.8167 13.1407C34.252 12.8686 34.7553 12.7326 35.3267 12.7326C36.1338 12.7326 36.7414 12.9548 37.1495 13.3991C37.5666 13.8435 37.7752 14.5327 37.7752 15.4668V19.7109H36.4013V15.5484C36.4013 14.9408 36.2789 14.5055 36.034 14.2425C35.7982 13.9705 35.4355 13.8344 34.9458 13.8344C34.3654 13.8344 33.9029 14.0158 33.5583 14.3786C33.2137 14.7322 33.0413 15.2129 33.0413 15.8205V19.7109H31.6674ZM42.3563 19.8334C41.7487 19.8334 41.2182 19.6928 40.7648 19.4117C40.3114 19.1305 39.9577 18.7225 39.7037 18.1874C39.4589 17.6523 39.3365 17.0175 39.3365 16.283C39.3365 15.5393 39.4589 14.9045 39.7037 14.3786C39.9577 13.8526 40.3114 13.449 40.7648 13.1679C41.2182 12.8777 41.7487 12.7326 42.3563 12.7326C42.9549 12.7326 43.4763 12.8822 43.9207 13.1815C44.3651 13.4808 44.6598 13.8888 44.8049 14.4058H44.6553L44.7913 12.855H46.1244C46.0972 13.1361 46.07 13.4173 46.0428 13.6984C46.0246 13.9705 46.0156 14.238 46.0156 14.501V19.7109H44.6416V18.1874H44.7913C44.6462 18.6952 44.3469 19.0988 43.8935 19.3981C43.4491 19.6883 42.9367 19.8334 42.3563 19.8334ZM42.6964 18.7587C43.2859 18.7587 43.7575 18.5501 44.1111 18.133C44.4739 17.7158 44.6553 17.0992 44.6553 16.283C44.6553 15.4668 44.4739 14.8547 44.1111 14.4466C43.7575 14.0294 43.2859 13.8208 42.6964 13.8208C42.0979 13.8208 41.6172 14.0294 41.2545 14.4466C40.9008 14.8547 40.724 15.4668 40.724 16.283C40.724 17.0992 40.9008 17.7158 41.2545 18.133C41.6082 18.5501 42.0888 18.7587 42.6964 18.7587ZM51.0266 19.8334C50.3374 19.8334 49.7343 19.6928 49.2174 19.4117C48.7095 19.1215 48.315 18.7088 48.0339 18.1738C47.7618 17.6297 47.6258 16.9858 47.6258 16.2422C47.6258 15.5076 47.7664 14.8773 48.0475 14.3513C48.3286 13.8254 48.7231 13.4263 49.231 13.1543C49.7388 12.8731 50.3374 12.7326 51.0266 12.7326C51.4709 12.7326 51.9017 12.8097 52.3189 12.9638C52.736 13.1089 53.0806 13.3175 53.3527 13.5896L52.9038 14.5554C52.6499 14.3105 52.3642 14.1292 52.0468 14.0113C51.7294 13.8843 51.4211 13.8208 51.1218 13.8208C50.4688 13.8208 49.9565 14.0294 49.5847 14.4466C49.2128 14.8637 49.0269 15.4668 49.0269 16.2558C49.0269 17.0538 49.2128 17.6659 49.5847 18.0922C49.9565 18.5184 50.4688 18.7315 51.1218 18.7315C51.412 18.7315 51.7158 18.6771 52.0332 18.5683C52.3506 18.4504 52.6408 18.2645 52.9038 18.0106L53.3527 18.9764C53.0716 19.2484 52.7179 19.4615 52.2917 19.6157C51.8745 19.7608 51.4528 19.8334 51.0266 19.8334ZM57.488 19.8334C56.7444 19.8334 56.1821 19.6339 55.8012 19.2348C55.4203 18.8267 55.2299 18.2191 55.2299 17.412V13.916H53.8968V12.855H55.2299V11.0458L56.6038 10.6785V12.855H58.5082V13.916H56.6038V17.2896C56.6038 17.7974 56.6945 18.1602 56.8759 18.3778C57.0572 18.5955 57.3202 18.7043 57.6648 18.7043C57.8372 18.7043 57.9868 18.6907 58.1137 18.6635C58.2498 18.6272 58.3722 18.5864 58.481 18.5411V19.6565C58.345 19.7109 58.1863 19.7517 58.0049 19.779C57.8236 19.8152 57.6512 19.8334 57.488 19.8334ZM59.7635 19.7109V12.855H61.1374V19.7109H59.7635ZM59.6547 11.4267V9.99837H61.2463V11.4267H59.6547ZM65.1643 19.7109L62.226 12.855H63.6951L66.0077 18.5819H65.6132L67.9665 12.855H69.3676L66.4157 19.7109H65.1643ZM73.5073 19.8334C72.4009 19.8334 71.5303 19.5205 70.8955 18.8948C70.2607 18.269 69.9433 17.403 69.9433 16.2966C69.9433 15.5802 70.0793 14.9544 70.3514 14.4194C70.6325 13.8843 71.0179 13.4717 71.5076 13.1815C72.0064 12.8822 72.5823 12.7326 73.2352 12.7326C73.8791 12.7326 74.4187 12.8686 74.854 13.1407C75.2893 13.4127 75.6203 13.7982 75.847 14.2969C76.0737 14.7866 76.1871 15.367 76.1871 16.0381V16.4734H71.0179V15.6844H75.2485L75.0172 15.8613C75.0172 15.1811 74.863 14.6551 74.5547 14.2833C74.2554 13.9024 73.8201 13.712 73.2488 13.712C72.614 13.712 72.1243 13.9342 71.7797 14.3786C71.4351 14.8138 71.2628 15.4169 71.2628 16.1878V16.3238C71.2628 17.1309 71.4578 17.7385 71.8477 18.1466C72.2467 18.5547 72.809 18.7587 73.5345 18.7587C73.9335 18.7587 74.3053 18.7043 74.6499 18.5955C75.0036 18.4776 75.3392 18.2872 75.6566 18.0242L76.1055 18.9628C75.7881 19.2439 75.4026 19.4615 74.9492 19.6157C74.4958 19.7608 74.0151 19.8334 73.5073 19.8334Z" fill="#FF0C0C"/>
</svg>
