<svg width="23" height="23" viewBox="0 0 23 23" fill="none" xmlns="http://www.w3.org/2000/svg">
<path fill-rule="evenodd" clip-rule="evenodd" d="M7.40625 0H15.6562C19.4526 0 22.5312 3.16454 22.5312 7.06686V15.5471C22.5312 19.4494 19.4526 22.614 15.6562 22.614H7.40625C3.60987 22.614 0.53125 19.4494 0.53125 15.5471V7.06686C0.53125 3.16454 3.60987 0 7.40625 0ZM15.6562 20.4949C18.31 20.4949 20.4688 18.2759 20.4688 15.5481V7.0679C20.4688 4.34009 18.31 2.12109 15.6562 2.12109H7.40625C4.7525 2.12109 2.59375 4.34009 2.59375 7.0679V15.5481C2.59375 18.2759 4.7525 20.4949 7.40625 20.4949H15.6562Z" fill="white"/>
<path fill-rule="evenodd" clip-rule="evenodd" d="M6.03125 11.3097C6.03125 8.1876 8.49388 5.65625 11.5312 5.65625C14.5686 5.65625 17.0312 8.1876 17.0312 11.3097C17.0312 14.4319 14.5686 16.9632 11.5312 16.9632C8.49388 16.9632 6.03125 14.4319 6.03125 11.3097ZM8.09375 11.3108C8.09375 13.2584 9.6365 14.8442 11.5312 14.8442C13.426 14.8442 14.9688 13.2584 14.9688 11.3108C14.9688 9.36173 13.426 7.77734 11.5312 7.77734C9.6365 7.77734 8.09375 9.36173 8.09375 11.3108Z" fill="white"/>
<ellipse cx="17.4438" cy="5.22989" rx="0.732875" ry="0.753327" fill="white"/>
</svg>
