<svg width="20" height="19" viewBox="0 0 20 19" fill="none" xmlns="http://www.w3.org/2000/svg">
<path d="M4.46875 2.11153C4.46849 2.65677 4.25752 3.17956 3.88226 3.56491C3.507 3.95026 2.99818 4.16659 2.46775 4.16632C1.93732 4.16604 1.42871 3.94919 1.05383 3.56346C0.678944 3.17772 0.468485 2.65471 0.46875 2.10947C0.469015 1.56424 0.679983 1.04144 1.05524 0.656095C1.4305 0.270748 1.93932 0.0544151 2.46975 0.0546878C3.00018 0.0549604 3.50879 0.271816 3.88367 0.657549C4.25856 1.04328 4.46902 1.56629 4.46875 2.11153ZM4.52875 5.68865H0.52875V18.558H4.52875V5.68865ZM10.8488 5.68865H6.86875V18.558H10.8088V11.8047C10.8088 8.04255 15.5787 7.69307 15.5787 11.8047V18.558H19.5287V10.4067C19.5287 4.06455 12.4688 4.30097 10.8088 7.41553L10.8488 5.68865Z" fill="white"/>
</svg>
