<svg width="41" height="41" viewBox="0 0 41 41" fill="none" xmlns="http://www.w3.org/2000/svg">
<rect x="0.25293" y="0.953125" width="40" height="40" rx="20" fill="black"/>
<rect x="0.801448" y="1.50164" width="38.903" height="38.903" rx="19.4515" stroke="black" stroke-opacity="0.2" stroke-width="1.09704"/>
<g clip-path="url(#clip0_1376_11126)">
<path d="M1.25098 1.95312H39.2412V39.9434H1.25098V1.95312Z" fill="black"/>
<path d="M22.0389 9.75721L22.0301 14.7684L22.0213 19.7796L21.609 18.6163L21.6082 18.6141L21.0755 29.7704C21.5993 31.2497 21.8799 32.0394 21.883 32.0425C21.8871 32.0467 22.1857 32.0648 22.5464 32.0826C23.6393 32.1369 24.9937 32.253 26.0211 32.3808C26.259 32.4103 26.4637 32.4254 26.4761 32.4143C26.4884 32.4034 26.495 27.301 26.491 21.0758L26.4834 9.75721H24.2612H22.0389ZM14 9.74219V21.0722C14 27.3038 14.0061 32.4084 14.0136 32.4159C14.021 32.4233 14.4069 32.3869 14.8712 32.3349C15.3353 32.2829 15.977 32.2182 16.2969 32.1912C16.7876 32.1498 18.2525 32.0556 18.4221 32.0546C18.4714 32.0543 18.4746 31.7998 18.4818 27.2558L18.4893 22.4571L18.8437 23.46L18.9691 23.8144L19.5017 12.6608L19.3187 12.1435C19.0454 11.3703 18.7718 10.5972 18.498 9.82422L18.4686 9.74219H16.2343H14Z" fill="#B1060F" stroke="black" stroke-width="0.386151"/>
<path d="M14 9.74219V16.1021L18.4802 27.9865C18.4807 27.7141 18.4812 27.5671 18.4818 27.2558L18.4893 22.4571L18.8437 23.46C20.8168 29.0429 21.8768 32.0363 21.883 32.0425C21.8871 32.0467 22.1857 32.0648 22.5464 32.0826C23.6393 32.1369 24.9937 32.253 26.0211 32.3808C26.259 32.4103 26.4637 32.4254 26.4761 32.4143C26.4845 32.4067 26.4901 29.9049 26.4915 26.3756L22.0322 13.5552L22.0301 14.7684L22.0213 19.7796L21.609 18.6163C21.2061 17.4797 20.9371 16.7196 19.3187 12.1435C19.0454 11.3703 18.7718 10.5972 18.498 9.82422L18.4686 9.74219H16.2343H14Z" fill="url(#paint0_radial_1376_11126)"/>
<path d="M14 9.74219L18.4892 22.4628V22.4571L18.8436 23.46C20.8167 29.0429 21.8766 32.0363 21.8829 32.0425C21.887 32.0467 22.1856 32.0648 22.5463 32.0826C23.6391 32.1369 24.9935 32.253 26.021 32.3808C26.2577 32.4101 26.4612 32.4252 26.4756 32.4145L22.021 19.7774V19.7796L21.6087 18.6163C21.2058 17.4797 20.9369 16.7196 19.3185 12.1435C18.8832 10.9129 18.5139 9.86942 18.4977 9.82422L18.4683 9.74219H16.2342H14Z" fill="#E50914"/>
<path d="M22.0389 9.75721L22.0301 14.7684L22.0213 19.7796L21.609 18.6163L21.6082 18.6141L21.0755 29.7704C21.5993 31.2497 21.8799 32.0394 21.883 32.0425C21.8871 32.0467 22.1857 32.0648 22.5464 32.0826C23.6393 32.1369 24.9937 32.253 26.0211 32.3808C26.259 32.4103 26.4637 32.4254 26.4761 32.4143C26.4884 32.4034 26.495 27.301 26.491 21.0758L26.4834 9.75721H24.2612H22.0389ZM14 9.74219V21.0722C14 27.3038 14.0061 32.4084 14.0136 32.4159C14.021 32.4233 14.4069 32.3869 14.8712 32.3349C15.3353 32.2829 15.977 32.2182 16.2969 32.1912C16.7876 32.1498 18.2525 32.0556 18.4221 32.0546C18.4714 32.0543 18.4746 31.7998 18.4818 27.2558L18.4893 22.4571L18.8437 23.46L18.9691 23.8144L19.5017 12.6608L19.3187 12.1435C19.0454 11.3703 18.7718 10.5972 18.498 9.82422L18.4686 9.74219H16.2343H14Z" fill="#B1060F" stroke="black" stroke-width="0.386151"/>
<path d="M14 9.74219V16.1021L18.4802 27.9865C18.4807 27.7141 18.4812 27.5671 18.4818 27.2558L18.4893 22.4571L18.8437 23.46C20.8168 29.0429 21.8768 32.0363 21.883 32.0425C21.8871 32.0467 22.1857 32.0648 22.5464 32.0826C23.6393 32.1369 24.9937 32.253 26.0211 32.3808C26.259 32.4103 26.4637 32.4254 26.4761 32.4143C26.4845 32.4067 26.4901 29.9049 26.4915 26.3756L22.0322 13.5552L22.0301 14.7684L22.0213 19.7796L21.609 18.6163C21.2061 17.4797 20.9371 16.7196 19.3187 12.1435C19.0454 11.3703 18.7718 10.5972 18.498 9.82422L18.4686 9.74219H16.2343H14Z" fill="url(#paint1_radial_1376_11126)"/>
<path d="M14 9.74219L18.4892 22.4628V22.4571L18.8436 23.46C20.8167 29.0429 21.8766 32.0363 21.8829 32.0425C21.887 32.0467 22.1856 32.0648 22.5463 32.0826C23.6391 32.1369 24.9935 32.253 26.021 32.3808C26.2577 32.4101 26.4612 32.4252 26.4756 32.4145L22.021 19.7774V19.7796L21.6087 18.6163C21.2058 17.4797 20.9369 16.7196 19.3185 12.1435C18.8832 10.9129 18.5139 9.86942 18.4977 9.82422L18.4683 9.74219H16.2342H14Z" fill="#E50914"/>
</g>
<defs>
<radialGradient id="paint0_radial_1376_11126" cx="0" cy="0" r="1" gradientUnits="userSpaceOnUse" gradientTransform="translate(617.84 624.68) scale(879.878 879.886)">
<stop/>
<stop offset="1" stop-opacity="0"/>
</radialGradient>
<radialGradient id="paint1_radial_1376_11126" cx="0" cy="0" r="1" gradientUnits="userSpaceOnUse" gradientTransform="translate(617.84 624.68) scale(879.878 879.886)">
<stop/>
<stop offset="1" stop-opacity="0"/>
</radialGradient>
<clipPath id="clip0_1376_11126">
<rect x="1.25098" y="1.95312" width="38.0045" height="38.0045" rx="19.0022" fill="white"/>
</clipPath>
</defs>
</svg>
