<svg width="40" height="40" viewBox="0 0 40 40" fill="none" xmlns="http://www.w3.org/2000/svg">
<circle cx="24.5441" cy="10.7892" r="5.15643" fill="#2152FF"/>
<path d="M26.401 15.608C26.401 13.8576 25.7056 12.1788 24.4678 10.941C23.23 9.70319 21.5512 9.00781 19.8007 9.00781C18.0503 9.00781 16.3715 9.70319 15.1337 10.941C13.8959 12.1788 13.2005 13.8576 13.2005 15.608C13.2005 23.3083 9.90039 25.5084 9.90039 25.5084H29.7011C29.7011 25.5084 26.401 23.3083 26.401 15.608Z" stroke="#4A4A4A" stroke-width="1.65006" stroke-linecap="round" stroke-linejoin="round"/>
<path d="M21.7036 29.9062C21.5102 30.2396 21.2326 30.5164 20.8986 30.7088C20.5646 30.9011 20.186 31.0024 19.8005 31.0024C19.4151 31.0024 19.0364 30.9011 18.7024 30.7088C18.3685 30.5164 18.0909 30.2396 17.8975 29.9062" stroke="#4A4A4A" stroke-width="1.65006" stroke-linecap="round" stroke-linejoin="round"/>
</svg>
