<svg width="43" height="43" viewBox="0 0 43 43" fill="none" xmlns="http://www.w3.org/2000/svg">
<g clip-path="url(#clip0_1357_12381)">
<path d="M37.3651 36.3171L37.6404 7.54061C37.662 5.2796 35.8298 3.41199 33.5688 3.39037L4.7923 3.11511C2.53129 3.09349 0.663684 4.92571 0.642057 7.18672L0.366806 35.9632C0.345179 38.2242 2.1774 40.0918 4.43841 40.1134L33.2149 40.3887C35.4759 40.4103 37.3435 38.5781 37.3651 36.3171ZM4.47773 36.0025L4.75298 7.22604L33.5294 7.50129L33.2542 36.2778L4.47773 36.0025Z" fill="#2152FF"/>
<path d="M19.0977 11.4798L19.0584 15.5907L8.78106 15.4924L8.82038 11.3815L19.0977 11.4798ZM29.2177 28.0218L29.1784 32.1327L8.62378 31.9361L8.6631 27.8252L29.2177 28.0218ZM14.9081 19.6623L14.8688 23.7733L8.70242 23.7143L8.74174 19.6034L14.9081 19.6623ZM23.13 19.741L23.0907 23.8519L18.9797 23.8126L19.019 19.7017L23.13 19.741Z" fill="#2152FF"/>
</g>
<defs>
<clipPath id="clip0_1357_12381">
<rect width="42" height="42" fill="white" transform="translate(0.5 0.5)"/>
</clipPath>
</defs>
</svg>
