<svg width="41" height="41" viewBox="0 0 41 41" fill="none" xmlns="http://www.w3.org/2000/svg">
<rect x="0.25293" y="0.953125" width="40" height="40" rx="20" fill="black"/>
<rect x="0.799335" y="1.49953" width="38.9072" height="38.9072" rx="19.4536" stroke="black" stroke-opacity="0.2" stroke-width="1.09281"/>
<g clip-path="url(#clip0_1376_11149)">
<path d="M20.2529 8.46094C13.3553 8.46094 7.76367 14.0527 7.76367 20.9502C7.76367 27.8482 13.3554 33.4395 20.2529 33.4395C27.151 33.4395 32.7422 27.8482 32.7422 20.9502C32.7422 14.0532 27.1512 8.46094 20.2529 8.46094ZM25.9803 26.4742C25.7566 26.841 25.2763 26.9573 24.9095 26.7321C21.9771 24.941 18.2858 24.5353 13.9384 25.5286C13.7371 25.5744 13.5259 25.5384 13.3511 25.4285C13.1763 25.3186 13.0523 25.1438 13.0064 24.9425C12.9835 24.8428 12.9805 24.7396 12.9976 24.6388C13.0146 24.538 13.0514 24.4416 13.1058 24.355C13.1602 24.2684 13.2311 24.1934 13.3145 24.1343C13.3979 24.0751 13.4922 24.033 13.5919 24.0104C18.3495 22.9234 22.4303 23.3914 25.7223 25.4033C26.0892 25.6285 26.2055 26.1073 25.9803 26.4742ZM27.509 23.0735C27.227 23.5316 26.6275 23.6763 26.1697 23.3944C22.8126 21.3309 17.6953 20.7333 13.7246 21.9386C13.2096 22.0941 12.6657 21.804 12.5094 21.2898C12.3543 20.7749 12.6446 20.232 13.1587 20.0755C17.6944 18.6991 23.3331 19.3658 27.1884 21.7349C27.6462 22.0169 27.7909 22.6162 27.509 23.0735ZM27.6402 19.5323C23.615 17.1414 16.9739 16.9214 13.1308 18.088C12.5137 18.2752 11.861 17.9267 11.6741 17.3096C11.487 16.6921 11.8351 16.04 12.4527 15.8523C16.8642 14.5131 24.1982 14.7719 28.8324 17.5231C29.3887 17.8525 29.5706 18.5694 29.241 19.1237C28.913 19.6789 28.1935 19.8619 27.6402 19.5323Z" fill="#1ED760"/>
</g>
<defs>
<clipPath id="clip0_1376_11149">
<rect width="24.9785" height="24.9785" fill="white" transform="translate(7.76367 8.46094)"/>
</clipPath>
</defs>
</svg>
