<svg width="144" height="31" viewBox="0 0 144 31" fill="none" xmlns="http://www.w3.org/2000/svg">
<rect x="0.5" width="143" height="30.8571" rx="15.4286" fill="#8800F3" fill-opacity="0.15"/>
<circle cx="16.7952" cy="15.43" r="3.43778" fill="#8800F3"/>
<path d="M37.5714 19.9297V11.523H34.293V10.3396H42.2644V11.523H38.9861V19.9297H37.5714ZM45.0419 20.0521C44.4343 20.0521 43.9037 19.9116 43.4503 19.6304C42.9969 19.3493 42.6432 18.9412 42.3893 18.4061C42.1444 17.8711 42.022 17.2363 42.022 16.5017C42.022 15.7581 42.1444 15.1233 42.3893 14.5973C42.6432 14.0713 42.9969 13.6678 43.4503 13.3866C43.9037 13.0964 44.4343 12.9513 45.0419 12.9513C45.6404 12.9513 46.1618 13.101 46.6062 13.4002C47.0506 13.6995 47.3453 14.1076 47.4904 14.6245H47.3408L47.4768 13.0738H48.8099C48.7827 13.3549 48.7555 13.636 48.7283 13.9171C48.7101 14.1892 48.7011 14.4567 48.7011 14.7197V19.9297H47.3272V18.4061H47.4768C47.3317 18.914 47.0324 19.3176 46.579 19.6168C46.1346 19.907 45.6223 20.0521 45.0419 20.0521ZM45.3819 18.9775C45.9714 18.9775 46.443 18.7689 46.7966 18.3517C47.1594 17.9346 47.3408 17.3179 47.3408 16.5017C47.3408 15.6855 47.1594 15.0734 46.7966 14.6653C46.443 14.2482 45.9714 14.0396 45.3819 14.0396C44.7834 14.0396 44.3028 14.2482 43.94 14.6653C43.5863 15.0734 43.4095 15.6855 43.4095 16.5017C43.4095 17.3179 43.5863 17.9346 43.94 18.3517C44.2937 18.7689 44.7743 18.9775 45.3819 18.9775ZM49.7264 19.9297L52.8415 16.0664V16.7194L49.8896 13.0738H51.5356L53.6169 15.7536H53.1272L55.2084 13.0738H56.8408L53.9161 16.7058V16.08L57.0176 19.9297H55.3717L53.1272 17.0594H53.6169L51.3588 19.9297H49.7264ZM64.3172 20.0521C63.7187 20.0521 63.1882 19.9116 62.7257 19.6304C62.2723 19.3493 61.9186 18.9412 61.6647 18.4061C61.4198 17.8711 61.2974 17.2363 61.2974 16.5017C61.2974 15.7581 61.4198 15.1233 61.6647 14.5973C61.9186 14.0713 62.2723 13.6678 62.7257 13.3866C63.1882 13.0964 63.7187 12.9513 64.3172 12.9513C64.9067 12.9513 65.4236 13.101 65.868 13.4002C66.3214 13.6904 66.6207 14.0895 66.7658 14.5973H66.6026V9.91786H67.9765V19.9297H66.6162V18.3789H66.7794C66.6252 18.8959 66.326 19.3039 65.8816 19.6032C65.4372 19.9025 64.9158 20.0521 64.3172 20.0521ZM64.6573 18.9775C65.2468 18.9775 65.7229 18.7689 66.0856 18.3517C66.4484 17.9346 66.6298 17.3179 66.6298 16.5017C66.6298 15.6855 66.4484 15.0734 66.0856 14.6653C65.7229 14.2482 65.2468 14.0396 64.6573 14.0396C64.0588 14.0396 63.5781 14.2482 63.2154 14.6653C62.8617 15.0734 62.6849 15.6855 62.6849 16.5017C62.6849 17.3179 62.8617 17.9346 63.2154 18.3517C63.5781 18.7689 64.0588 18.9775 64.6573 18.9775ZM73.1507 20.0521C72.0443 20.0521 71.1737 19.7392 70.5389 19.1135C69.9041 18.4878 69.5867 17.6217 69.5867 16.5153C69.5867 15.7989 69.7227 15.1732 69.9948 14.6381C70.2759 14.1031 70.6614 13.6904 71.1511 13.4002C71.6498 13.101 72.2257 12.9513 72.8786 12.9513C73.5225 12.9513 74.0621 13.0874 74.4974 13.3594C74.9327 13.6315 75.2637 14.0169 75.4904 14.5157C75.7171 15.0054 75.8305 15.5858 75.8305 16.2569V16.6922H70.6614V15.9032H74.8919L74.6606 16.08C74.6606 15.3999 74.5065 14.8739 74.1981 14.5021C73.8989 14.1212 73.4636 13.9308 72.8923 13.9308C72.2574 13.9308 71.7677 14.1529 71.4231 14.5973C71.0785 15.0326 70.9062 15.6357 70.9062 16.4065V16.5425C70.9062 17.3496 71.1012 17.9572 71.4911 18.3653C71.8902 18.7734 72.4524 18.9775 73.1779 18.9775C73.5769 18.9775 73.9488 18.9231 74.2934 18.8142C74.647 18.6963 74.9826 18.5059 75.3 18.2429L75.7489 19.1815C75.4315 19.4627 75.0461 19.6803 74.5926 19.8345C74.1392 19.9796 73.6586 20.0521 73.1507 20.0521ZM80.0325 20.0521C79.4339 20.0521 78.9034 19.9116 78.4409 19.6304C77.9875 19.3493 77.6338 18.9412 77.3799 18.4061C77.135 17.8711 77.0126 17.2363 77.0126 16.5017C77.0126 15.7581 77.135 15.1233 77.3799 14.5973C77.6338 14.0713 77.9875 13.6678 78.4409 13.3866C78.9034 13.0964 79.4339 12.9513 80.0325 12.9513C80.6219 12.9513 81.1388 13.101 81.5832 13.4002C82.0366 13.6904 82.3359 14.0895 82.481 14.5973H82.3178V9.91786H83.6917V19.9297H82.3314V18.3789H82.4946C82.3404 18.8959 82.0412 19.3039 81.5968 19.6032C81.1524 19.9025 80.631 20.0521 80.0325 20.0521ZM80.3725 18.9775C80.962 18.9775 81.4381 18.7689 81.8009 18.3517C82.1636 17.9346 82.345 17.3179 82.345 16.5017C82.345 15.6855 82.1636 15.0734 81.8009 14.6653C81.4381 14.2482 80.962 14.0396 80.3725 14.0396C79.774 14.0396 79.2934 14.2482 78.9306 14.6653C78.5769 15.0734 78.4001 15.6855 78.4001 16.5017C78.4001 17.3179 78.5769 17.9346 78.9306 18.3517C79.2934 18.7689 79.774 18.9775 80.3725 18.9775ZM88.1314 20.0521C87.3061 20.0521 86.6849 19.8299 86.2677 19.3856C85.8597 18.9321 85.6556 18.2384 85.6556 17.3043V13.0738H87.0295V17.2771C87.0295 17.8484 87.1474 18.2701 87.3832 18.5422C87.619 18.8142 87.9772 18.9503 88.4578 18.9503C89.002 18.9503 89.4418 18.7689 89.7773 18.4061C90.1129 18.0434 90.2806 17.5628 90.2806 16.9642V13.0738H91.6545V19.9297H90.3215V18.4606H90.4983C90.3078 18.9684 90.004 19.3629 89.5869 19.644C89.1697 19.9161 88.6846 20.0521 88.1314 20.0521ZM96.6732 20.0521C95.984 20.0521 95.3809 19.9116 94.864 19.6304C94.3562 19.3402 93.9617 18.9276 93.6806 18.3925C93.4085 17.8484 93.2725 17.2045 93.2725 16.4609C93.2725 15.7264 93.413 15.0961 93.6942 14.5701C93.9753 14.0441 94.3698 13.6451 94.8776 13.373C95.3855 13.0919 95.984 12.9513 96.6732 12.9513C97.1176 12.9513 97.5483 13.0284 97.9655 13.1826C98.3827 13.3277 98.7273 13.5363 98.9993 13.8083L98.5504 14.7741C98.2965 14.5293 98.0108 14.3479 97.6934 14.23C97.376 14.1031 97.0677 14.0396 96.7684 14.0396C96.1155 14.0396 95.6031 14.2482 95.2313 14.6653C94.8595 15.0825 94.6736 15.6855 94.6736 16.4745C94.6736 17.2726 94.8595 17.8847 95.2313 18.3109C95.6031 18.7372 96.1155 18.9503 96.7684 18.9503C97.0586 18.9503 97.3624 18.8959 97.6798 18.787C97.9972 18.6691 98.2874 18.4832 98.5504 18.2293L98.9993 19.1951C98.7182 19.4672 98.3645 19.6803 97.9383 19.8345C97.5211 19.9796 97.0994 20.0521 96.6732 20.0521ZM103.135 20.0521C102.391 20.0521 101.829 19.8526 101.448 19.4536C101.067 19.0455 100.877 18.4379 100.877 17.6308V14.1348H99.5435V13.0738H100.877V11.2646L102.25 10.8973V13.0738H104.155V14.1348H102.25V17.5083C102.25 18.0162 102.341 18.3789 102.523 18.5966C102.704 18.8142 102.967 18.9231 103.311 18.9231C103.484 18.9231 103.633 18.9095 103.76 18.8823C103.896 18.846 104.019 18.8052 104.128 18.7598V19.8753C103.992 19.9297 103.833 19.9705 103.652 19.9977C103.47 20.034 103.298 20.0521 103.135 20.0521ZM105.41 19.9297V13.0738H106.784V19.9297H105.41ZM105.301 11.6454V10.2171H106.893V11.6454H105.301ZM112.457 20.0521C111.858 20.0521 111.337 19.9025 110.893 19.6032C110.448 19.3039 110.153 18.8959 110.008 18.3789H110.158V19.9297H108.798V9.91786H110.172V14.5973H110.008C110.162 14.0895 110.457 13.6904 110.893 13.4002C111.337 13.101 111.858 12.9513 112.457 12.9513C113.064 12.9513 113.595 13.0964 114.048 13.3866C114.502 13.6678 114.851 14.0759 115.096 14.6109C115.35 15.1369 115.477 15.7717 115.477 16.5153C115.477 17.2499 115.35 17.8847 115.096 18.4198C114.851 18.9457 114.497 19.3493 114.035 19.6304C113.581 19.9116 113.055 20.0521 112.457 20.0521ZM112.117 18.9775C112.706 18.9775 113.182 18.7734 113.545 18.3653C113.908 17.9482 114.089 17.3315 114.089 16.5153C114.089 15.6901 113.908 15.0734 113.545 14.6653C113.182 14.2482 112.706 14.0396 112.117 14.0396C111.518 14.0396 111.038 14.2482 110.675 14.6653C110.321 15.0734 110.144 15.6855 110.144 16.5017C110.144 17.3179 110.321 17.9346 110.675 18.3517C111.038 18.7689 111.518 18.9775 112.117 18.9775ZM117.087 19.9297V9.91786H118.461V19.9297H117.087ZM123.644 20.0521C122.538 20.0521 121.667 19.7392 121.032 19.1135C120.397 18.4878 120.08 17.6217 120.08 16.5153C120.08 15.7989 120.216 15.1732 120.488 14.6381C120.769 14.1031 121.155 13.6904 121.644 13.4002C122.143 13.101 122.719 12.9513 123.372 12.9513C124.016 12.9513 124.555 13.0874 124.991 13.3594C125.426 13.6315 125.757 14.0169 125.984 14.5157C126.21 15.0054 126.324 15.5858 126.324 16.2569V16.6922H121.155V15.9032H125.385L125.154 16.08C125.154 15.3999 125 14.8739 124.691 14.5021C124.392 14.1212 123.957 13.9308 123.386 13.9308C122.751 13.9308 122.261 14.1529 121.916 14.5973C121.572 15.0326 121.399 15.6357 121.399 16.4065V16.5425C121.399 17.3496 121.594 17.9572 121.984 18.3653C122.383 18.7734 122.946 18.9775 123.671 18.9775C124.07 18.9775 124.442 18.9231 124.787 18.8142C125.14 18.6963 125.476 18.5059 125.793 18.2429L126.242 19.1815C125.925 19.4627 125.539 19.6803 125.086 19.8345C124.632 19.9796 124.152 20.0521 123.644 20.0521Z" fill="#8800F3"/>
</svg>
