<svg width="23" height="19" viewBox="0 0 23 19" fill="none" xmlns="http://www.w3.org/2000/svg">
<path d="M22.5312 2.22987C21.7131 2.59876 20.8414 2.84327 19.9325 2.96199C20.8675 2.38816 21.5811 1.48643 21.9166 0.39955C21.0449 0.933805 20.0824 1.31118 19.0566 1.52177C18.2289 0.615796 17.0491 0.0546875 15.7621 0.0546875C13.2651 0.0546875 11.2549 2.138 11.2549 4.69196C11.2549 5.05944 11.2851 5.41278 11.3594 5.74916C7.60975 5.56118 4.29187 3.71391 2.063 0.899884C1.67387 1.59385 1.44563 2.38816 1.44563 3.24325C1.44563 4.84885 2.25 6.27211 3.449 7.09611C2.72437 7.08197 2.0135 6.86573 1.41125 6.5251C1.41125 6.53924 1.41125 6.55761 1.41125 6.57599C1.41125 8.8289 2.97463 10.7002 5.02475 11.1313C4.65763 11.2345 4.2575 11.2839 3.84225 11.2839C3.5535 11.2839 3.262 11.267 2.98837 11.2048C3.57275 13.0407 5.231 14.3905 7.20275 14.4343C5.66825 15.6682 3.71988 16.4116 1.61063 16.4116C1.24075 16.4116 0.886 16.3947 0.53125 16.348C2.52912 17.6724 4.89688 18.4285 7.45025 18.4285C15.7498 18.4285 20.2873 11.3617 20.2873 5.23611C20.2873 5.03117 20.2804 4.8333 20.2708 4.63684C21.1659 3.98386 21.918 3.16835 22.5312 2.22987Z" fill="white"/>
</svg>
